<svg xmlns="http://www.w3.org/2000/svg" version="1.1" xmlns:xlink="http://www.w3.org/1999/xlink" xmlns:svgjs="http://svgjs.com/svgjs" width="146.69mm" height="37.35mm"><svg id="SvgjsSvg1000" data-name="Warstwa 1" xmlns="http://www.w3.org/2000/svg" width="146.69mm" height="37.35mm" viewBox="0 0 415.82 105.88"><defs><style>.cls-1</style></defs><path class="cls-1" d="M44.78,37.5v2.09q0,8.5-3.7,14.16T32.22,59.4q-12.55,0-12.55-15.21V29.83q0-4,.77-11.79T22.32,7.92H0c.84,1.49,1.49,4.8,2,9.91s.7,9.11.7,12V43.22q0,9.48,6.83,14.92t16.74,5.44H28q9.9,0,15.2-6.48t5.3-17l.14-2q0-20.35,5.72-30.27h-16Q44.78,13.92,44.78,37.5Z"></path><path class="cls-1" d="M76.72,2.48,57.19,8.06a20.19,20.19,0,0,1,2.65,9.63V52.42a20.16,20.16,0,0,1-2.65,9.63H79.51a20,20,0,0,1-2.65-9.63Z"></path><path class="cls-1" d="M106.57,18.81q-4.6,5-16.18,5A32.58,32.58,0,0,1,87,23.69a24.28,24.28,0,0,1,2.51,9.62v19a21.42,21.42,0,0,1-2.65,9.77h22.32a23.36,23.36,0,0,1-2.65-9.77Z"></path><path class="cls-1" d="M213.7,47a21.31,21.31,0,0,0-2.23-17.09,22.88,22.88,0,0,0-13.81-10.81,23.63,23.63,0,0,0-6.14-.83,22.62,22.62,0,0,0-13.74,4.46,21.57,21.57,0,0,0-8.16,11.86,21.45,21.45,0,0,0,2.23,17.16,22.27,22.27,0,0,0,13.81,10.74,24.06,24.06,0,0,0,6.28.83,22.38,22.38,0,0,0,13.6-4.46A21.67,21.67,0,0,0,213.7,47Zm-18.07,8.58q-1.32,5.92-3.83,5.93-5,0-5.3-20.65t5-20.64c1.86-.09,3.18,1.74,4,5.51a82.56,82.56,0,0,1,1.33,15A64.7,64.7,0,0,1,195.63,55.56Z"></path><path class="cls-1" d="M293.76,19.36H285.4a10.76,10.76,0,0,1,.9,4.61,24.78,24.78,0,0,1-1.6,5q-1.12,3.07-8.23,20.36Q268.37,31.5,267.4,29q-2.65-6.14-.7-9.63H244.38a27.91,27.91,0,0,1,6,9.63c.56,1.39,1.35,3.35,2.37,5.86q-2.08,5.43-5.58,14.22Q241.46,37.22,238.25,29q-2.66-6.14-.7-9.63H215.23a27.91,27.91,0,0,1,6,9.63q2,4.88,13.53,33.06h10.46l9.35-22.88q3.9,9.91,9.34,22.88h10.46L287.77,29A32.3,32.3,0,0,1,293.76,19.36Z"></path><path class="cls-1" d="M326.54,37.78l-2.37-1.26q-2.37-1.4-5.44-3t-4.32-2.44c-.56-.37-1.28-.79-2.16-1.25s-1.54-.84-2-1.12-.88-.6-1.39-1a4.76,4.76,0,0,1-1.19-1.18,3.78,3.78,0,0,1-.56-1.33,3.33,3.33,0,0,1,1.75-3.69,9.22,9.22,0,0,1,5-1.33q6.13,0,9.42,4.25a18.65,18.65,0,0,1,3.55,10.82.47.47,0,0,0,.56.14q.69-.84,3.14-4.75t3.14-4.74c.18-.46.18-.79,0-1a19.15,19.15,0,0,0-7.61-4.6,29.18,29.18,0,0,0-10.25-1.95,27.63,27.63,0,0,0-13.67,3.2,10.71,10.71,0,0,0-5.86,9.63q-.13,7.68,8.09,12.55,8,3.91,11.86,6.28c.56.37,1.33.82,2.3,1.33l2.24,1.18a14.49,14.49,0,0,1,1.6,1,5.45,5.45,0,0,1,1.25,1.25,3.6,3.6,0,0,1,.56,1.33c.09,1.49-.74,2.6-2.51,3.35a14.65,14.65,0,0,1-5.72,1.11h-.56a14.78,14.78,0,0,1-10.53-5.86q-4.26-5.3-4.53-10c0-.18-.07-.28-.21-.28a.48.48,0,0,0-.35.14L296,55.91c-.19.47-.19.79,0,1q2.37,2.79,7.81,4.6a39.11,39.11,0,0,0,12.41,1.81,25.8,25.8,0,0,0,12.9-3.48,10.9,10.9,0,0,0,5.79-9.63Q335.2,42.95,326.54,37.78Z"></path><path class="cls-1" d="M393.5,62.05h22.32a20,20,0,0,1-2.65-9.63L413,18.94q-4.33,5-16.19,5c-1.3,0-2.41,0-3.34-.14a21.92,21.92,0,0,1,2.65,9.62v19A20.16,20.16,0,0,1,393.5,62.05Z"></path><polygon class="cls-1" points="145.96 103.07 139.56 86.98 136.87 86.98 136.87 105.49 138.63 105.49 138.63 89.14 145.14 105.49 146.78 105.49 153.29 89.14 153.29 105.49 155.03 105.49 155.03 86.98 152.35 86.98 145.96 103.07"></polygon><rect class="cls-1" x="168.68" y="86.98" width="1.82" height="18.51"></rect><polygon class="cls-1" points="194.69 86.98 186.12 97.26 186.12 86.98 184.33 86.98 184.33 105.49 186.12 105.49 186.12 99.78 188.21 97.29 194.49 105.49 196.72 105.49 189.38 95.93 196.85 86.98 194.69 86.98"></polygon><path class="cls-1" d="M222.71,89.32a9.23,9.23,0,0,0-3-2,9.46,9.46,0,0,0-3.6-.68,9.15,9.15,0,0,0-3.54.67,9.42,9.42,0,0,0-3,2,9.51,9.51,0,0,0-2.15,3.14,9.29,9.29,0,0,0-.75,3.69,9.61,9.61,0,0,0,2.71,6.93,9,9,0,0,0,6.7,2.81,9.56,9.56,0,0,0,3.87-.79,9.67,9.67,0,0,0,3.19-2.34,9.38,9.38,0,0,0,1.83-3,10.3,10.3,0,0,0,.61-3.62,9.64,9.64,0,0,0-.71-3.7A9.35,9.35,0,0,0,222.71,89.32Zm-1.2,12.47a7,7,0,0,1-5.33,2.31,7.23,7.23,0,0,1-5.43-2.29,7.83,7.83,0,0,1-2.2-5.67,7.62,7.62,0,0,1,.76-3.3,7.83,7.83,0,0,1,2.08-2.74,7.61,7.61,0,0,1,2.19-1.29,7.13,7.13,0,0,1,2.47-.43,7.28,7.28,0,0,1,5.39,2.28,7.45,7.45,0,0,1,2.24,5.43A8,8,0,0,1,221.51,101.79Z"></path><polygon class="cls-1" points="240.5 96.94 243.76 94.71 243.76 92.86 240.5 95.13 240.5 86.98 238.69 86.98 238.69 96.37 236.78 97.71 236.78 99.53 238.69 98.18 238.69 105.49 247.01 105.49 247.01 103.7 240.5 103.7 240.5 96.94"></polygon><path class="cls-1" d="M264.64,87l-7.19,18.51h1.92l2.22-5.81h8.23l2.22,5.81H274L266.82,87Zm-2.42,11,3.46-9.29L269.19,98Z"></path><path class="cls-1" d="M292.22,98.69c0,2.14-.24,3.57-.71,4.29a3,3,0,0,1-4.4.23,3.38,3.38,0,0,1-.88-2.22h-1.82a4.93,4.93,0,0,0,1.27,3.55,4.33,4.33,0,0,0,3.33,1.34,5.23,5.23,0,0,0,2.51-.6,4.45,4.45,0,0,0,1.77-1.7,4.68,4.68,0,0,0,.57-1.59,13.9,13.9,0,0,0,.18-2.54V87h-1.82Z"></path><path class="cls-1" d="M159.24,55q-2.51-2.66-17.71-22.6,5.58-8.5,8.51-8.93a2.73,2.73,0,0,0,.49-.07,3.69,3.69,0,0,1,.49-.07,3.44,3.44,0,0,1,1.53.35,2.63,2.63,0,0,1,1.12,1.12,14.48,14.48,0,0,1,.69,1.46,6.65,6.65,0,0,1,.35,2c0,.89.09,1.59.14,2.1s.07,1.32.07,2.44v2.23a.46.46,0,0,0,.56.14q.84-1,4.39-6.56c2.37-3.72,3.7-5.76,4-6.14s.28-.64,0-1.11a9.49,9.49,0,0,0-8.23-3.91,7.69,7.69,0,0,0-1.68.14q-4,.84-8.78,6.42a123.79,123.79,0,0,0-11.44,17l-.14-38.5L114.05,8.13a20,20,0,0,1,2.65,9.62V52.49a20,20,0,0,1-2.65,9.62h22.32a20,20,0,0,1-2.65-9.62V48.3q1.11,1.53,3.07,4.19T140.06,57c.89,1.21,1.38,1.91,1.47,2.09a2.29,2.29,0,0,1,.35,1.81,1.57,1.57,0,0,1-.91,1.26h25.39A85.41,85.41,0,0,1,159.24,55Z"></path><path class="cls-1" d="M395.73,12.55a2.84,2.84,0,0,1-2.44,1.26c-.28,0-.42.19-.42.56q.28,2.08,3.21,4.67a10.8,10.8,0,0,0,7.4,2.58,9.86,9.86,0,0,0,7.11-3,9.67,9.67,0,0,0,3.07-7.18,11.39,11.39,0,0,0-1.11-5.1,8.9,8.9,0,0,0-2-2.95,8.48,8.48,0,0,0-4.19-2.33,16.53,16.53,0,0,0-6-1.06A20.64,20.64,0,0,0,398,.14c-5.05.61-11.75,7-12.3,7.49A116.59,116.59,0,0,0,370.9,24c-.94,1.31-2.73,3.8-5.13,7.33-2.74,4.05-4.89,7.43-6.31,9.68l-.14-38.5L339.8,8.06a20.19,20.19,0,0,1,2.65,9.63V52.42a20.16,20.16,0,0,1-2.65,9.63h22.31a20.16,20.16,0,0,1-2.65-9.63V48.24c.75,1,1.77,2.42,3.07,4.18s2.4,3.26,3.28,4.47,1.37,1.9,1.46,2.09a2.28,2.28,0,0,1,.35,1.81,1.6,1.6,0,0,1-.9,1.26H392.1A85.9,85.9,0,0,1,385,54.93q-2.5-2.64-17.72-22.59c3.72-5.67,13.93-16.85,19.78-21.61a53.9,53.9,0,0,1,6.31-3.92,2.36,2.36,0,0,1,2-.37c1.3.54,1.32,3.13,1.32,3.32a4.53,4.53,0,0,1-.91,2.79Z"></path><path class="cls-1" d="M97.77,18.67A8.4,8.4,0,0,0,104,16a8.55,8.55,0,0,0,2.58-6.14A8.47,8.47,0,0,0,104,3.67a8.48,8.48,0,0,0-6.21-2.58,8.7,8.7,0,0,0-6.28,2.58,8.34,8.34,0,0,0-2.65,6.21,8.34,8.34,0,0,0,2.65,6.21A8.7,8.7,0,0,0,97.77,18.67Z"></path></svg><style>@media (prefers-color-scheme: light) { :root { filter: none; } }
</style></svg>